<svg aria-hidden="true" style="position: absolute; width: 0; height: 0; overflow: hidden;" version="1.1" xmlns="http://www.w3.org/2000/svg" xmlns:xlink="http://www.w3.org/1999/xlink">
<defs>
<symbol id="icon-list" viewBox="0 0 32 32">
<path d="M28.978 9.182h-16.597c-1.552 0-2.81-1.258-2.81-2.81s1.258-2.81 2.81-2.81v0h16.597c1.552 0 2.81 1.258 2.81 2.81s-1.258 2.81-2.81 2.81v0zM3.425 9.182h-0.439c-1.552 0-2.81-1.258-2.81-2.81s1.258-2.81 2.81-2.81v0h0.439c1.552 0 2.81 1.258 2.81 2.81s-1.258 2.81-2.81 2.81v0zM28.978 18.792h-16.597c-1.552 0-2.81-1.258-2.81-2.81s1.258-2.81 2.81-2.81v0h16.597c1.552 0 2.81 1.258 2.81 2.81s-1.258 2.81-2.81 2.81v0zM3.425 18.792h-0.439c-1.552 0-2.81-1.258-2.81-2.81s1.258-2.81 2.81-2.81v0h0.439c1.552 0 2.81 1.258 2.81 2.81s-1.258 2.81-2.81 2.81v0zM28.978 28.402h-16.597c-1.552 0-2.81-1.258-2.81-2.81s1.258-2.81 2.81-2.81v0h16.597c1.552 0 2.81 1.258 2.81 2.81s-1.258 2.81-2.81 2.81v0zM3.425 28.402h-0.439c-1.552 0-2.81-1.258-2.81-2.81s1.258-2.81 2.81-2.81v0h0.439c1.552 0 2.81 1.258 2.81 2.81s-1.258 2.81-2.81 2.81v0z"></path>
</symbol>
<symbol id="icon-filter" viewBox="0 0 32 32">
<path d="M13.54 31.788c-0.582 0-1.054-0.472-1.054-1.054v0-14.507l-10.89-14.361c-0.133-0.175-0.213-0.396-0.213-0.636 0-0.582 0.471-1.054 1.053-1.054h27.092c0 0 0.001 0 0.001 0 0.582 0 1.053 0.472 1.053 1.053 0 0.241-0.081 0.462-0.216 0.64l0.002-0.003-10.89 14.361v11.547c-0 0.38-0.201 0.713-0.503 0.898l-0.005 0.003-4.884 2.961c-0.156 0.096-0.345 0.153-0.546 0.153h-0zM4.558 2.283l9.822 12.953c0.139 0.183 0.214 0.407 0.214 0.637v12.991l2.777-1.683v-11.308c0-0.23 0.075-0.453 0.214-0.637l9.822-12.953h-22.848zM18.424 27.774v0z"></path>
</symbol>
<symbol id="icon-star" viewBox="0 0 34 32">
<path d="M17.604 0.547l4.293 10.029 10.895 0.973c0.451 0.038 0.803 0.414 0.803 0.872 0 0.265-0.118 0.503-0.305 0.663l-0.001 0.001-8.247 7.187 2.432 10.658c0.014 0.058 0.022 0.124 0.022 0.193 0 0.415-0.289 0.761-0.677 0.85l-0.006 0.001c-0.055 0.012-0.119 0.019-0.184 0.019-0.181 0-0.35-0.054-0.491-0.147l0.003 0.002-9.36-5.586-9.384 5.613c-0.128 0.079-0.284 0.126-0.451 0.126-0.316 0-0.592-0.168-0.744-0.42l-0.002-0.004c-0.079-0.127-0.126-0.282-0.126-0.447 0-0.072 0.009-0.142 0.026-0.209l-0.001 0.006 2.435-10.658-8.236-7.184c-0.183-0.163-0.298-0.399-0.298-0.662 0-0.219 0.080-0.42 0.211-0.574l-0.001 0.001c0.16-0.163 0.38-0.267 0.625-0.273l0.001-0 10.854-0.973 4.293-10.056c0.141-0.314 0.45-0.528 0.81-0.528s0.669 0.215 0.808 0.523l0.002 0.006z"></path>
</symbol>
<symbol id="icon-star-empty" viewBox="0 0 33 32">
<path d="M25.948 20.487l1.657 9.719c0.005 0.028 0.008 0.055 0.009 0.082 0.118 1.262-1.21 2.1-2.284 1.527l-8.678-4.641-8.632 4.617c-1.109 0.643-2.53-0.28-2.317-1.597l1.598-9.699-6.818-6.951c-0.927-0.879-0.455-2.488 0.854-2.676l9.53-1.365 4.421-8.698c0.589-1.083 2.188-1.080 2.757 0.051l4.354 8.648 9.484 1.364c0.988 0.144 1.604 1.175 1.228 2.121-0.080 0.198-0.191 0.368-0.33 0.511l0-0-6.831 6.988zM26.288 30.428l-1.713-10.051 0.001-0c-0.006-0.034-0.010-0.073-0.010-0.113 0-0.181 0.072-0.345 0.189-0.465l-0 0 7.069-7.23c0.129-0.133 0.049-0.355-0.13-0.38l-9.829-1.413c-0.208-0.030-0.4-0.158-0.502-0.36l-4.51-8.959c-0.084-0.168-0.291-0.16-0.396-0.011l-4.546 8.948c-0.095 0.203-0.284 0.349-0.509 0.382l-0.004 0-9.876 1.414c-0.176 0.025-0.239 0.213-0.148 0.358 2.371 2.413 4.738 4.83 7.107 7.245 0.123 0.121 0.2 0.289 0.2 0.476 0 0.038-0.003 0.075-0.009 0.111l0.001-0.004-1.653 10.029c-0.035 0.215 0.184 0.32 0.368 0.213l8.949-4.786c0.091-0.050 0.2-0.080 0.316-0.080s0.223 0.029 0.317 0.080l-0.003-0.002 8.991 4.809c0.158 0.084 0.334-0.037 0.331-0.212z"></path>
</symbol>
<symbol id="icon-heart" viewBox="0 0 36 32">
<path d="M19.118 5.715c-0.199 0.21-0.397 0.423-0.642 0.678l-0.675 0.704-0.701-0.68c-0.207-0.202-0.418-0.409-0.622-0.61-2.167-2.132-3.8-3.738-7.161-3.782-0.131-0.003-0.272 0-0.418 0.006-1.881 0.067-3.616 0.759-4.883 1.942-1.25 1.168-2.047 2.824-2.074 4.839-0.003 0.126 0 0.257 0.006 0.4 0.202 5.628 5.587 10.537 10.052 14.605 0.862 0.786 1.688 1.539 2.479 2.301l3.288 3.169 4.133-4.1c0.666-0.66 1.419-1.381 2.225-2.152 1.37-1.314 2.894-2.772 4.314-4.241 1.019-1.054 1.986-2.114 2.807-3.134 0.806-0.999 1.466-1.948 1.89-2.795 0.695-1.39 0.914-2.78 0.765-4.080-0.146-1.282-0.651-2.479-1.408-3.502-0.78-1.040-1.771-1.878-2.914-2.461l-0.047-0.022c-1.349-0.672-2.894-0.99-4.474-0.809-2.725 0.315-4.176 1.855-5.94 3.724zM17.748 4.337c2.015-2.135 3.689-3.884 7.088-4.273 1.963-0.225 3.884 0.166 5.558 1.008 1.446 0.724 2.707 1.782 3.654 3.058 0.955 1.291 1.595 2.807 1.782 4.436 0.19 1.653-0.085 3.414-0.964 5.166-0.496 0.99-1.232 2.053-2.112 3.142-0.862 1.069-1.866 2.173-2.921 3.262-1.446 1.498-2.982 2.97-4.366 4.296-0.809 0.774-1.565 1.498-2.202 2.129l-5.482 5.438-0.683-0.657-3.972-3.826c-0.727-0.698-1.568-1.466-2.442-2.263-4.734-4.319-10.45-9.527-10.68-15.975-0.006-0.158-0.006-0.321-0.006-0.491 0.035-2.588 1.069-4.725 2.69-6.238 1.606-1.498 3.788-2.374 6.136-2.459 0.161-0.006 0.33-0.009 0.508-0.006 4.1 0.056 5.975 1.852 8.414 4.252z"></path>
</symbol>
<symbol id="icon-arrow-little" viewBox="0 0 32 32">
<path d="M24.391 20.387c0.242-0.241 0.391-0.575 0.391-0.943s-0.149-0.702-0.391-0.943l-6.524-6.516c-0.483-0.482-1.149-0.781-1.885-0.781s-1.403 0.298-1.885 0.781l-6.52 6.52c-0.242 0.241-0.391 0.575-0.391 0.943 0 0.737 0.597 1.334 1.334 1.334 0.368 0 0.701-0.149 0.943-0.39v0l5.58-5.581c0.241-0.242 0.575-0.391 0.943-0.391s0.702 0.149 0.943 0.391v0l5.576 5.576c0.241 0.241 0.575 0.39 0.943 0.39s0.701-0.149 0.943-0.39v0z"></path>
</symbol>
<symbol id="icon-arrow-up-down" viewBox="0 0 32 32">
<path d="M0 10h6v22h4v-22h6v-2l-8-8-8 8v2zM16 22h6v-22h4v22h6v2l-8 8-8-8v-2z"></path>
</symbol>
<symbol id="icon-enveloppe" viewBox="0 0 32 32">
<path d="M13.259 4.333h5.483c2.451 0 4.392 0 5.911 0.204 1.563 0.211 2.828 0.653 3.827 1.651 0.997 0.999 1.44 2.264 1.651 3.827 0.204 1.52 0.204 3.46 0.204 5.911v0.149c0 2.451 0 4.392-0.204 5.911-0.211 1.563-0.653 2.828-1.651 3.827-0.999 0.997-2.264 1.44-3.827 1.651-1.52 0.204-3.46 0.204-5.911 0.204h-5.483c-2.451 0-4.392 0-5.911-0.204-1.563-0.211-2.828-0.653-3.827-1.651-0.997-0.999-1.44-2.264-1.651-3.827-0.204-1.52-0.204-3.46-0.204-5.911v-0.149c0-2.451 0-4.392 0.204-5.911 0.211-1.563 0.653-2.828 1.651-3.827 0.999-0.997 2.264-1.44 3.827-1.651 1.52-0.204 3.46-0.204 5.911-0.204zM7.613 6.52c-1.341 0.18-2.115 0.519-2.68 1.083-0.563 0.564-0.901 1.337-1.081 2.679-0.184 1.371-0.187 3.176-0.187 5.719s0.003 4.348 0.187 5.72c0.18 1.34 0.519 2.113 1.083 2.677s1.337 0.903 2.679 1.083c1.371 0.184 3.176 0.187 5.719 0.187h5.333c2.543 0 4.349-0.003 5.72-0.187 1.34-0.18 2.113-0.519 2.677-1.083s0.903-1.337 1.083-2.679c0.184-1.371 0.187-3.176 0.187-5.719s-0.003-4.348-0.187-5.72c-0.18-1.34-0.519-2.113-1.083-2.677s-1.337-0.903-2.679-1.083c-1.369-0.184-3.176-0.187-5.719-0.187h-5.333c-2.543 0-4.348 0.003-5.72 0.187zM7.231 10.027c0.185-0.22 0.46-0.36 0.768-0.36 0.244 0 0.468 0.088 0.642 0.233l-0.002-0.001 2.881 2.399c1.244 1.036 2.107 1.753 2.837 2.223 0.705 0.453 1.184 0.607 1.644 0.607s0.939-0.152 1.644-0.607c0.729-0.469 1.593-1.187 2.837-2.223l2.879-2.4c0.172-0.144 0.396-0.232 0.64-0.232 0.552 0 1 0.448 1 1 0 0.308-0.139 0.584-0.359 0.767l-0.002 0.001-2.928 2.44c-1.183 0.987-2.14 1.784-2.987 2.328-0.88 0.567-1.737 0.924-2.725 0.924s-1.845-0.359-2.727-0.924c-0.845-0.544-1.803-1.343-2.985-2.327l-2.929-2.44c-0.221-0.185-0.36-0.46-0.36-0.769 0-0.245 0.088-0.469 0.234-0.642l-0.001 0.002z"></path>
</symbol>
<symbol id="icon-facebook" viewBox="0 0 32 32">
<path d="M23.6 13.199l-0.515 3.76h-6.188v13.161h-3.76v-13.161h-5.64v-3.76h5.64v-3.446c0-4.781 2.937-7.872 7.485-7.872 1.948 0 3.162 0.103 3.864 0.197l-0.055 3.561-2.892 0.006c-0.079-0.008-1.963-0.154-3.322 1.094-0.876 0.803-1.32 1.957-1.32 3.427v3.033h6.703zM19.479 8.132c0.741-0.69 1.895-0.615 1.98-0.611l4.824-0.002 0.103-6.958-0.726-0.179c-0.466-0.115-1.893-0.382-5.039-0.382-5.601 0-9.365 3.92-9.365 9.752v1.566h-5.64v7.521h5.64v13.161h7.521v-13.161h5.945l1.032-7.521h-6.977v-1.153c0-0.916 0.237-1.6 0.701-2.034z"></path>
</symbol>
<symbol id="icon-grid" viewBox="0 0 32 32">
<path d="M30 32h-10c-1.105 0-2-0.895-2-2v0-10c0-1.105 0.895-2 2-2v0h10c1.105 0 2 0.895 2 2v0 10c0 1.105-0.895 2-2 2v0zM30 20h-10v10h10v-10zM30 14h-10c-1.105 0-2-0.895-2-2v0-10c0-1.105 0.895-2 2-2v0h10c1.105 0 2 0.895 2 2v0 10c0 1.105-0.895 2-2 2v0zM30 2h-10v10h10v-10zM12 32h-10c-1.105 0-2-0.895-2-2v0-10c0-1.105 0.895-2 2-2v0h10c1.105 0 2 0.895 2 2v0 10c0 1.105-0.895 2-2 2v0zM12 20h-10v10h10v-10zM12 14h-10c-1.105 0-2-0.895-2-2v0-10c0-1.105 0.895-2 2-2v0h10c1.105 0 2 0.895 2 2v0 10c0 1.105-0.895 2-2 2v0zM12 2h-10v10h10v-10z"></path>
</symbol>
<symbol id="icon-instagram" viewBox="0 0 32 32">
<path d="M16 24v0c-4.418 0-8-3.582-8-8s3.582-8 8-8v0c4.418 0 8 3.582 8 8s-3.582 8-8 8zM16 21.333c2.946 0 5.333-2.388 5.333-5.333s-2.388-5.333-5.333-5.333v0c-2.946 0-5.333 2.388-5.333 5.333s2.388 5.333 5.333 5.333v0z"></path>
<path d="M24 6.667c-0.736 0-1.333 0.597-1.333 1.333s0.597 1.333 1.333 1.333v0c0.736 0 1.333-0.597 1.333-1.333s-0.597-1.333-1.333-1.333v0z"></path>
<path d="M2.205 5.701l0.021-0.045c0.761-1.468 1.963-2.67 3.475-3.451 1.712-0.872 3.952-0.872 8.432-0.872h3.733c4.48 0 6.72 0 8.432 0.872l0.045 0.021c1.468 0.761 2.67 1.963 3.451 3.475 0.872 1.712 0.872 3.952 0.872 8.432v3.733c0 4.48 0 6.72-0.872 8.432l-0.021 0.045c-0.761 1.468-1.963 2.67-3.475 3.451-1.712 0.872-3.952 0.872-8.432 0.872h-3.733c-4.48 0-6.72 0-8.432-0.872l-0.045-0.021c-1.468-0.761-2.67-1.963-3.451-3.475-0.872-1.712-0.872-3.952-0.872-8.432v-3.733c0-4.48 0-6.72 0.872-8.432zM17.867 4h-3.733c-2.284 0-3.837 0.003-5.037 0.1-1.169 0.096-1.767 0.269-2.184 0.481-1.008 0.521-1.809 1.323-2.317 2.301l-0.014 0.030c-0.213 0.417-0.387 1.015-0.48 2.184-0.1 1.2-0.101 2.753-0.101 5.037v3.733c0 2.284 0.003 3.837 0.1 5.037 0.096 1.169 0.269 1.767 0.481 2.184 0.521 1.008 1.323 1.809 2.301 2.317l0.030 0.014c0.417 0.213 1.015 0.387 2.184 0.48 1.2 0.099 2.753 0.101 5.037 0.101h3.733c2.284 0 3.837-0.003 5.037-0.1 1.169-0.096 1.767-0.269 2.184-0.481 1.008-0.521 1.809-1.323 2.317-2.301l0.014-0.030c0.213-0.417 0.387-1.015 0.48-2.184 0.099-1.2 0.101-2.753 0.101-5.037v-3.733c0-2.284-0.003-3.837-0.1-5.037-0.096-1.169-0.269-1.767-0.481-2.184-0.521-1.008-1.323-1.809-2.301-2.317l-0.030-0.014c-0.417-0.213-1.015-0.387-2.184-0.48-1.2-0.1-2.753-0.101-5.037-0.101z"></path>
</symbol>
<symbol id="icon-person" viewBox="0 0 32 32">
<path d="M16 15.503c2.784 0 5.041-2.257 5.041-5.041s-2.257-5.042-5.041-5.042v0c-2.784 0-5.041 2.257-5.041 5.042s2.257 5.041 5.041 5.041v0zM16 17.718c-6.703 0-11 3.699-11 5.5v3.363h22v-3.363c0-2.178-4.068-5.5-11-5.5z"></path>
</symbol>
<symbol id="icon-search" viewBox="0 0 32 32">
<path d="M14 24c5.523 0 10-4.477 10-10s-4.477-10-10-10v0c-5.523 0-10 4.477-10 10s4.477 10 10 10v0zM23.292 21.594l6.706 6.706-1.698 1.698-6.706-6.706c-2.051 1.686-4.703 2.708-7.594 2.708-6.627 0-12-5.373-12-12s5.373-12 12-12c6.627 0 12 5.373 12 12 0 2.891-1.022 5.543-2.725 7.615l0.017-0.021z"></path>
</symbol>
<symbol id="icon-shopping-cart" viewBox="0 0 32 32">
<path d="M2.667 1.333c-0.736 0-1.333 0.597-1.333 1.333s0.597 1.333 1.333 1.333v0h1.627l4.751 19.009c-1.412 0.638-2.376 2.034-2.376 3.655 0 2.209 1.791 4 4 4s4-1.791 4-4c0-0.477-0.084-0.935-0.237-1.359l0.009 0.028h5.789c-0.145 0.397-0.229 0.855-0.229 1.333 0 2.209 1.791 4 4 4s4-1.791 4-4c0-2.209-1.791-4-4-4-0 0-0 0-0.001 0h-12.293l-0.667-2.667h12.96c2.752 0 4.403-1.739 5.319-3.659 0.893-1.876 1.205-4.12 1.315-5.749 0.151-2.272-1.727-3.925-3.805-3.925h-19.12l-0.828-3.313c-0.3-1.169-1.344-2.020-2.587-2.020h-1.627zM24 17.333h-13.627l-2-8h18.455c0.737 0 1.18 0.543 1.144 1.080-0.101 1.523-0.384 3.363-1.060 4.78-0.656 1.373-1.552 2.14-2.912 2.14zM24 27.992c-0.732 0-1.325-0.593-1.325-1.325s0.593-1.325 1.325-1.325v0c0.732 0 1.325 0.593 1.325 1.325s-0.593 1.325-1.325 1.325v0zM9.341 26.667c0 0.732 0.593 1.325 1.325 1.325s1.325-0.593 1.325-1.325v0c0-0.732-0.593-1.325-1.325-1.325s-1.325 0.593-1.325 1.325v0z"></path>
</symbol>
<symbol id="icon-twitter" viewBox="0 0 32 32">
<path d="M26.377 5.224c0.464-0.109 0.788-0.219 1.053-0.332 0.373-0.16 0.68-0.351 1.168-0.672 0.207-0.138 0.461-0.221 0.735-0.221 0.736 0 1.333 0.597 1.333 1.333 0 0 0 0 0 0.001v-0c0 1.44-0.18 2.623-0.596 3.661-0.356 0.863-0.838 1.602-1.432 2.236l0.004-0.004c-0.249 4.484-1.547 8.005-3.531 10.673-2.057 2.765-4.793 4.536-7.679 5.528-2.876 0.988-5.915 1.209-8.637 0.875-2.705-0.333-5.205-1.228-6.948-2.584-0.315-0.246-0.516-0.626-0.516-1.054 0-0.736 0.597-1.333 1.333-1.333 0.067 0 0.133 0.005 0.197 0.014l-0.007-0.001c1.715 0.247 3.365-0.144 4.723-0.701-0.267-0.145-0.52-0.303-0.753-0.464-1.236-0.857-2.235-2.019-2.683-2.917-0.089-0.174-0.141-0.379-0.141-0.596 0-0.434 0.208-0.82 0.529-1.064l0.003-0.002c-1.804-1.492-2.533-3.552-2.533-4.933 0.001-0.604 0.403-1.114 0.955-1.278l0.009-0.002c-0.113-0.317-0.223-0.713-0.309-1.119l-0.011-0.064c-0.355-1.716-0.323-3.653 0.063-5.193 0.15-0.585 0.672-1.010 1.294-1.010 0.491 0 0.92 0.265 1.151 0.66l0.003 0.006c1.437 2.491 4.087 4.013 6.553 4.915 1.16 0.424 2.233 0.693 3.039 0.86 0.173-1.627 0.627-2.969 1.325-4.036 0.822-1.268 2.071-2.2 3.538-2.599l0.043-0.010c2.377-0.64 5.013 0.089 6.724 1.428zM14.331 13.077c-1.377-0.279-2.563-0.621-3.708-1.047l0.169 0.055c-1.809-0.661-3.911-1.693-5.671-3.291 0.031 0.293 0.076 0.585 0.133 0.869 0.296 1.428 0.844 2.228 1.341 2.476 0.44 0.224 0.737 0.674 0.737 1.192 0 0.166-0.031 0.326-0.086 0.473l0.003-0.009c-0.319 0.864-1.159 0.933-1.921 0.744 0.613 0.92 1.717 1.837 3.557 2.145 0.634 0.11 1.111 0.657 1.111 1.315 0 0.643-0.454 1.179-1.059 1.305l-0.009 0.002-1.16 0.233c0.177 0.153 0.369 0.305 0.573 0.447 0.931 0.644 1.863 0.92 2.668 0.72 0.097-0.025 0.208-0.040 0.323-0.040 0.736 0 1.333 0.597 1.333 1.333 0 0.41-0.185 0.777-0.477 1.022l-0.002 0.002c-0.859 0.715-1.861 1.288-2.867 1.764-0.471 0.224-0.999 0.444-1.571 0.639 0.44 0.093 0.899 0.171 1.372 0.229 2.36 0.289 4.988 0.093 7.445-0.751 2.448-0.841 4.712-2.32 6.405-4.597 1.691-2.273 2.871-5.419 3.029-9.691 0.013-0.35 0.16-0.663 0.389-0.893v0c0.6-0.6 1.095-1.287 1.339-2.105-0.427 0.133-0.907 0.248-1.48 0.357-0.075 0.015-0.161 0.024-0.25 0.024-0.368 0-0.701-0.149-0.942-0.39v0c-1.020-1.019-3.036-1.689-4.711-1.239-0.865 0.231-1.579 0.767-2.036 1.482l-0.008 0.014c-0.549 0.84-0.969 2.147-0.969 4.133 0 0 0 0.001 0 0.001 0 0.392-0.169 0.745-0.439 0.989l-0.001 0.001c-0.664 0.6-1.781 0.245-2.563 0.088z"></path>
</symbol>
<symbol id="icon-youtube" viewBox="0 0 32 32">
<path d="M12.661 9.509c-0.19-0.11-0.418-0.176-0.661-0.176-0.736 0-1.333 0.597-1.333 1.333v10.667c0 0.736 0.597 1.333 1.333 1.333 0.243 0 0.471-0.065 0.668-0.179l-0.006 0.003 9.333-5.333c0.404-0.234 0.671-0.665 0.671-1.157s-0.267-0.923-0.665-1.154l-0.006-0.003-9.333-5.333zM18.645 16l-5.312 3.036v-6.072l5.312 3.036z"></path>
<path d="M0 16c0 4.999 0 7.5 1.273 9.253l0.013 0.019c0.404 0.551 0.891 1.038 1.462 1.455 1.752 1.273 4.252 1.273 9.252 1.273h8c4.999 0 7.5 0 9.252-1.273l0.019-0.013c0.552-0.404 1.039-0.891 1.456-1.462 1.273-1.752 1.273-4.252 1.273-9.252 0-4.999 0-7.5-1.273-9.252l-0.013-0.019c-0.404-0.552-0.891-1.039-1.462-1.456-1.752-1.273-4.252-1.273-9.252-1.273h-8c-4.999 0-7.5 0-9.253 1.273l-0.019 0.013c-0.551 0.404-1.038 0.891-1.455 1.462-1.273 1.752-1.273 4.252-1.273 9.252zM12 6.667h8c2.56 0 4.264 0.004 5.556 0.144 1.243 0.133 1.783 0.368 2.128 0.62 0.34 0.247 0.639 0.545 0.885 0.885 0.252 0.347 0.485 0.885 0.62 2.128 0.14 1.292 0.144 2.997 0.144 5.556 0 2.56-0.004 4.264-0.144 5.556-0.133 1.243-0.368 1.783-0.62 2.128-0.247 0.34-0.545 0.639-0.885 0.885-0.345 0.252-0.885 0.485-2.128 0.62-1.292 0.14-2.997 0.144-5.556 0.144h-8c-2.56 0-4.264-0.004-5.556-0.144-1.243-0.133-1.783-0.368-2.128-0.62-0.342-0.251-0.635-0.543-0.877-0.874l-0.008-0.011c-0.252-0.345-0.485-0.885-0.62-2.128-0.14-1.292-0.144-2.996-0.144-5.556s0.004-4.264 0.144-5.556c0.133-1.243 0.368-1.783 0.62-2.128 0.251-0.342 0.543-0.635 0.874-0.877l0.011-0.008c0.345-0.252 0.885-0.485 2.128-0.62 1.292-0.14 2.996-0.144 5.556-0.144z"></path>
</symbol>
</defs>
</svg>
